<svg width="100" height="105" viewBox="0 0 100 105" fill="none" xmlns="http://www.w3.org/2000/svg">
<circle cx="50" cy="50" r="50" fill="#FF9A9A"/>
<path d="M25 80C25 73.3696 27.6339 67.0107 32.3223 62.3223C37.0107 57.6339 43.3696 55 50 55C56.6304 55 62.9893 57.6339 67.6777 62.3223C72.3661 67.0107 75 73.3696 75 80L68.9899 80C68.9899 74.9636 66.9891 70.1334 63.4279 66.5721C59.8666 63.0109 55.0364 61.0101 50 61.0101C44.9636 61.0101 40.1334 63.0109 36.5721 66.5721C33.0109 70.1334 31.0101 74.9636 31.0101 80H25Z" fill="black"/>
<path d="M24.7633 22.9099C25.2169 21.6638 26.6419 20.8291 28.7248 20.5894C30.8078 20.3496 33.3781 20.7246 35.8704 21.6317C38.3626 22.5388 40.5725 23.9037 42.0141 25.4263C43.4557 26.9488 44.0107 28.5042 43.5572 29.7503L34.1603 26.3301L24.7633 22.9099Z" fill="black"/>
<path d="M56.7633 29.7503C56.3098 28.5042 56.8648 26.9488 58.3064 25.4263C59.748 23.9037 61.9579 22.5388 64.4502 21.6317C66.9424 20.7246 69.5127 20.3497 71.5957 20.5894C73.6786 20.8291 75.1036 21.6638 75.5572 22.9099L66.1603 26.3301L56.7633 29.7503Z" fill="black"/>
<circle cx="32.5" cy="40.5" r="7.5" fill="black"/>
<circle cx="67.5" cy="40.5" r="7.5" fill="black"/>
</svg>
