<svg width="100" height="100" viewBox="0 0 100 100" fill="none" xmlns="http://www.w3.org/2000/svg">
<circle cx="50" cy="50" r="50" fill="#F4D692"/>
<rect x="24" y="23" width="7" height="25" fill="black"/>
<rect x="69" y="23" width="7" height="25" fill="black"/>
<path d="M75 58C75 64.6304 72.3661 70.9893 67.6777 75.6777C62.9893 80.3661 56.6304 83 50 83C43.3696 83 37.0107 80.3661 32.3223 75.6777C27.6339 70.9893 25 64.6304 25 58H31.0101C31.0101 63.0364 33.0109 67.8666 36.5721 71.4279C40.1334 74.9891 44.9636 76.9899 50 76.9899C55.0364 76.9899 59.8666 74.9891 63.4279 71.4279C66.9891 67.8666 68.9899 63.0364 68.9899 58H75Z" fill="black"/>
</svg>
