<svg width="100" height="105" viewBox="0 0 100 105" fill="none" xmlns="http://www.w3.org/2000/svg">
<circle cx="50" cy="50" r="50" fill="#A8AFF5"/>
<path d="M25 80C25 73.3696 27.6339 67.0107 32.3223 62.3223C37.0107 57.6339 43.3696 55 50 55C56.6304 55 62.9893 57.6339 67.6777 62.3223C72.3661 67.0107 75 73.3696 75 80H68.9899C68.9899 74.9636 66.9891 70.1334 63.4279 66.5721C59.8666 63.0109 55.0364 61.0101 50 61.0101C44.9636 61.0101 40.1334 63.0109 36.5721 66.5721C33.0109 70.1334 31.0101 74.9636 31.0101 80H25Z" fill="black"/>
<circle cx="67.5" cy="37.5" r="7.5" fill="black"/>
<circle cx="67.5" cy="37.5" r="7.5" fill="black"/>
<circle cx="67.5" cy="37.5" r="7.5" fill="black"/>
<circle cx="32.5" cy="37.5" r="7.5" fill="black"/>
<circle cx="32.5" cy="37.5" r="7.5" fill="black"/>
<circle cx="32.5" cy="37.5" r="7.5" fill="black"/>
</svg>
