<svg width="100" height="102" viewBox="0 0 100 102" fill="none" xmlns="http://www.w3.org/2000/svg">
<circle cx="50" cy="50" r="50" fill="#A8AFF5"/>
<path d="M41 42.5C41 39.1848 39.4196 36.0054 36.6066 33.6612C33.7936 31.317 29.9782 30 26 30C22.0218 30 18.2064 31.317 15.3934 33.6612C12.5804 36.0054 11 39.1848 11 42.5L16.2375 42.5C16.2375 40.3423 17.266 38.2731 19.0968 36.7474C20.9277 35.2217 23.4108 34.3646 26 34.3646C28.5892 34.3646 31.0723 35.2217 32.9032 36.7474C34.734 38.2731 35.7625 40.3423 35.7625 42.5H41Z" fill="black"/>
<path d="M88 42.5C88 39.1848 86.4196 36.0054 83.6066 33.6612C80.7936 31.317 76.9782 30 73 30C69.0218 30 65.2064 31.317 62.3934 33.6612C59.5804 36.0054 58 39.1848 58 42.5L63.2375 42.5C63.2375 40.3423 64.266 38.2731 66.0968 36.7474C67.9277 35.2217 70.4108 34.3646 73 34.3646C75.5892 34.3646 78.0723 35.2217 79.9032 36.7474C81.734 38.2731 82.7625 40.3423 82.7625 42.5H88Z" fill="black"/>
<path d="M25 77C25 70.3696 27.6339 64.0107 32.3223 59.3223C37.0107 54.6339 43.3696 52 50 52C56.6304 52 62.9893 54.6339 67.6777 59.3223C72.3661 64.0107 75 70.3696 75 77H68.9899C68.9899 71.9636 66.9891 67.1334 63.4279 63.5721C59.8666 60.0109 55.0364 58.0101 50 58.0101C44.9636 58.0101 40.1334 60.0109 36.5721 63.5721C33.0109 67.1334 31.0101 71.9636 31.0101 77H25Z" fill="black"/>
</svg>
