<svg width="100" height="100" viewBox="0 0 100 100" fill="none" xmlns="http://www.w3.org/2000/svg">
<circle cx="50" cy="50" r="50" fill="#71EC96"/>
<path d="M44 42.5C44 39.1848 42.4196 36.0054 39.6066 33.6612C36.7936 31.317 32.9782 30 29 30C25.0218 30 21.2064 31.317 18.3934 33.6612C15.5804 36.0054 14 39.1848 14 42.5L19.2375 42.5C19.2375 40.3423 20.266 38.2731 22.0968 36.7474C23.9277 35.2217 26.4108 34.3646 29 34.3646C31.5892 34.3646 34.0723 35.2217 35.9032 36.7474C37.734 38.2731 38.7625 40.3423 38.7625 42.5H44Z" fill="black"/>
<path d="M87 42.5C87 39.1848 85.4196 36.0054 82.6066 33.6612C79.7936 31.317 75.9782 30 72 30C68.0218 30 64.2064 31.317 61.3934 33.6612C58.5804 36.0054 57 39.1848 57 42.5L62.2375 42.5C62.2375 40.3423 63.266 38.2731 65.0968 36.7474C66.9277 35.2217 69.4108 34.3646 72 34.3646C74.5892 34.3646 77.0723 35.2217 78.9032 36.7474C80.734 38.2731 81.7625 40.3423 81.7625 42.5H87Z" fill="black"/>
<path d="M75 55C75 61.6304 72.3661 67.9893 67.6777 72.6777C62.9893 77.3661 56.6304 80 50 80C43.3696 80 37.0107 77.3661 32.3223 72.6777C27.6339 67.9893 25 61.6304 25 55H31.0101C31.0101 60.0364 33.0109 64.8666 36.5721 68.4279C40.1334 71.9891 44.9636 73.9899 50 73.9899C55.0364 73.9899 59.8666 71.9891 63.4279 68.4279C66.9891 64.8666 68.9899 60.0364 68.9899 55H75Z" fill="black"/>
</svg>
